<?xml version="1.0" standalone="no"?>
<!DOCTYPE svg PUBLIC "-//W3C//DTD SVG 20010904//EN"
 "http://www.w3.org/TR/2001/REC-SVG-20010904/DTD/svg10.dtd">
<svg version="1.0" xmlns="http://www.w3.org/2000/svg"
 width="1146.000000pt" height="339.000000pt" viewBox="0 0 1146.000000 339.000000"
 preserveAspectRatio="xMidYMid meet">

<g transform="translate(0.000000,339.000000) scale(0.100000,-0.100000)"
fill="#000000" stroke="none">
<path d="M3010 2796 c-58 -23 -135 -53 -172 -66 -38 -13 -68 -27 -68 -32 0
-16 63 -158 70 -158 23 0 349 136 368 154 20 18 23 28 19 66 -6 52 -34 80 -81
79 -17 0 -78 -19 -136 -43z m145 4 c-16 -4 -99 -33 -183 -64 -146 -53 -184
-65 -168 -49 15 15 323 121 351 121 l30 0 -30 -8z"/>
<path d="M2717 2662 l-27 -28 21 -52 c21 -50 23 -52 60 -52 22 0 39 4 39 9 0
11 -51 133 -60 144 -3 4 -18 -6 -33 -21z"/>
<path d="M2622 2613 c-19 -9 -40 -26 -47 -37 -21 -34 -395 -1155 -395 -1186 0
-15 15 -79 34 -141 19 -62 32 -117 29 -122 -3 -6 -320 -6 -790 -2 -744 7 -784
7 -803 -10 -24 -22 -26 -68 -4 -89 13 -13 44 -16 183 -16 92 0 170 -3 174 -6
3 -4 -13 -16 -36 -28 -123 -62 -142 -235 -37 -330 79 -71 187 -73 267 -3 112
98 90 279 -42 338 -40 18 -37 19 330 18 204 0 366 -2 360 -4 -5 -2 -22 -6 -37
-9 -15 -4 -44 -21 -64 -39 -145 -127 -62 -358 128 -357 124 1 208 86 208 210
-1 79 -74 171 -150 187 -22 5 39 10 165 13 222 6 244 12 271 76 15 35 10 60
-42 230 l-24 81 186 554 c138 413 191 558 207 571 20 15 21 19 8 55 -14 40
-29 63 -40 63 -3 0 -21 -8 -39 -17z m-1677 -1520 c-146 -7 -293 -7 -288 0 2 4
82 6 176 5 95 -1 145 -3 112 -5z m172 -213 c58 -35 60 -117 6 -160 -62 -48
-153 -2 -153 77 0 39 20 72 55 91 30 17 56 14 92 -8z m822 -19 c44 -41 44 -97
-1 -141 -28 -28 -37 -31 -71 -27 -71 10 -113 78 -83 136 35 67 103 81 155 32z
m-1042 -73 c-3 -7 -5 -2 -5 12 0 14 2 19 5 13 2 -7 2 -19 0 -25z"/>
<path d="M1040 815 c-10 -12 -10 -18 0 -30 7 -8 18 -15 25 -15 7 0 18 7 25 15
10 12 10 18 0 30 -7 8 -18 15 -25 15 -7 0 -18 -7 -25 -15z"/>
<path d="M1850 785 c0 -20 5 -25 25 -25 20 0 25 5 25 25 0 20 -5 25 -25 25
-20 0 -25 -5 -25 -25z"/>
<path d="M252 2524 c-41 -29 -58 20 272 -789 97 -236 188 -448 204 -470 15
-22 47 -50 72 -63 44 -22 45 -22 556 -22 553 0 570 1 639 55 19 14 42 40 51
58 9 17 101 272 205 567 103 294 192 548 198 563 18 46 14 84 -11 101 -20 14
-140 16 -1093 16 -953 0 -1073 -2 -1093 -16z m294 -25 c-173 -5 -251 -11 -256
-19 -4 -7 10 -57 31 -113 21 -55 37 -102 35 -104 -5 -6 -86 196 -86 216 0 11
6 22 13 24 6 3 125 5 262 5 l250 -1 -249 -8z m7 -156 c15 -43 27 -81 27 -85 0
-5 -30 -8 -67 -8 l-68 0 -27 68 c-15 37 -30 75 -34 85 -5 15 2 17 68 17 l73 0
28 -77z m291 60 c3 -10 10 -40 16 -68 6 -27 13 -58 16 -68 5 -16 -2 -18 -88
-15 l-93 3 -27 75 c-15 41 -27 78 -27 83 -1 4 44 7 98 7 86 0 100 -2 105 -17z
m316 -15 c0 -18 3 -57 6 -85 l7 -53 -95 0 -95 0 -16 75 c-10 42 -17 80 -17 85
0 6 44 10 105 10 l105 0 0 -32z m310 -15 c0 -27 -3 -65 -6 -85 l-7 -38 -93 0
c-92 0 -94 0 -94 24 0 12 -3 51 -6 85 l-7 61 107 0 106 0 0 -47z m310 30 c0
-16 -7 -51 -25 -130 -5 -22 -10 -23 -101 -23 -95 0 -96 0 -90 23 3 12 6 50 6
85 l0 62 105 0 c93 0 105 -2 105 -17z m310 10 c0 -5 -12 -43 -26 -85 l-26 -78
-90 0 -90 0 7 38 c3 20 11 58 17 85 l10 47 99 0 c54 0 99 -3 99 -7z m220 0 c0
-5 -12 -43 -26 -85 l-26 -78 -53 0 -54 0 25 73 c13 39 26 78 29 85 5 13 105
18 105 5z m-1930 -198 c0 -5 -5 -3 -10 5 -5 8 -10 20 -10 25 0 6 5 3 10 -5 5
-8 10 -19 10 -25z m264 -132 c10 -32 21 -64 23 -70 4 -10 -11 -13 -56 -13
l-62 0 -20 48 c-44 101 -47 92 29 92 l68 0 18 -57z m272 -3 c20 -85 23 -81
-58 -78 l-73 3 -22 60 c-12 33 -22 64 -22 68 -1 4 36 7 81 5 l82 -3 12 -55z
m264 41 c0 -10 3 -39 6 -65 l7 -46 -80 0 -80 0 -6 33 c-3 17 -9 47 -13 65 l-6
32 86 0 c77 0 86 -2 86 -19z m271 15 c2 -2 2 -32 1 -65 l-4 -61 -79 0 -79 0 0
28 c0 15 -3 44 -6 65 l-7 37 85 0 c47 0 87 -2 89 -4z m276 -18 c-4 -13 -9 -42
-13 -65 l-7 -43 -78 0 -79 0 0 34 c0 18 3 48 6 65 l7 31 84 0 c83 0 85 0 80
-22z m273 14 c0 -4 -9 -36 -21 -70 l-21 -62 -68 0 c-38 0 -71 4 -74 8 -4 7 9
87 19 120 5 14 165 18 165 4z m197 -54 l-22 -63 -48 -3 c-26 -2 -47 1 -47 5 0
12 28 102 35 113 3 6 28 10 55 10 l49 0 -22 -62z m-1471 -225 c8 -21 18 -50
21 -65 5 -28 5 -28 -49 -28 l-55 0 -25 65 -26 65 59 0 c58 0 59 0 75 -37z
m243 -20 c6 -31 11 -60 11 -65 0 -5 -26 -8 -57 -6 l-56 3 -18 50 c-26 76 -27
75 45 75 l63 0 12 -57z m231 38 c0 -10 3 -39 6 -65 l7 -46 -61 0 c-59 0 -62 1
-68 28 -8 35 -14 63 -20 85 -5 15 3 17 65 17 63 0 71 -2 71 -19z m238 -43 l-3
-63 -62 -3 c-63 -3 -63 -3 -63 25 0 15 -3 45 -6 66 l-7 37 72 0 72 0 -3 -62z
m242 54 c0 -5 -5 -34 -11 -65 l-12 -57 -58 0 -59 0 0 65 0 65 70 0 c39 0 70
-4 70 -8z m238 -4 c-3 -7 -13 -37 -22 -65 l-18 -53 -55 0 -55 0 7 58 c4 31 9
60 12 65 2 4 34 7 70 7 48 0 64 -3 61 -12z m209 0 c-2 -7 -13 -37 -23 -65 -19
-53 -19 -53 -61 -53 -49 0 -50 2 -26 77 l17 53 49 0 c35 0 48 -4 44 -12z
m-1309 -288 l21 -60 -49 0 c-55 0 -51 -3 -79 68 l-21 52 54 0 54 0 20 -60z
m201 10 c15 -71 15 -70 -28 -70 -37 0 -39 1 -60 56 -11 31 -21 58 -21 60 0 2
22 4 49 4 l49 0 11 -50z m201 21 c0 -16 3 -43 6 -60 l7 -31 -47 0 c-42 0 -46
2 -52 28 -3 15 -10 42 -14 60 l-8 32 54 0 c53 0 54 -1 54 -29z m206 -8 c-3
-21 -6 -48 -6 -60 0 -20 -5 -23 -44 -23 l-43 0 -7 46 c-10 76 -12 74 50 74
l57 0 -7 -37z m200 -20 l-12 -58 -48 -3 -49 -3 6 38 c4 21 7 48 7 61 0 20 5
22 54 22 l53 0 -11 -57z m214 50 c0 -3 -8 -30 -17 -60 l-17 -53 -44 0 c-43 0
-44 0 -38 30 3 17 9 44 12 60 5 28 8 30 55 30 27 0 49 -3 49 -7z m186 -53
l-21 -60 -43 0 c-37 0 -43 3 -38 18 2 9 10 36 17 60 12 42 12 42 59 42 l47 0
-21 -60z m-1129 -225 l21 -55 -32 0 c-39 0 -48 7 -75 50 -31 51 -28 60 23 60
l43 0 20 -55z m172 5 c15 -69 14 -72 -11 -68 -24 3 -44 35 -54 87 -6 29 -5 31
24 31 28 0 31 -3 41 -50z m171 -10 c0 -52 -2 -60 -19 -60 -27 0 -40 21 -47 74
l-7 46 37 0 36 0 0 -60z m170 5 c0 -54 -1 -55 -29 -55 -30 0 -41 18 -41 71 0
33 7 39 42 39 27 0 28 -1 28 -55z m176 18 c-12 -68 -16 -73 -47 -73 -27 0 -29
3 -29 39 0 60 8 71 47 71 35 0 35 0 29 -37z m171 10 c-12 -62 -26 -83 -53 -83
-26 0 -26 1 -19 48 9 60 10 62 47 62 28 0 30 -2 25 -27z m203 18 c0 -27 -25
-69 -49 -84 -31 -18 -61 -22 -61 -8 0 14 22 75 33 89 11 13 77 17 77 3z"/>
<path d="M6504 2047 c-2 -7 -4 -139 -2 -291 l3 -278 28 -24 c29 -25 81 -31
122 -15 11 5 25 4 32 -1 7 -6 24 -8 37 -4 19 5 31 24 59 93 l35 88 133 3 134
2 35 -86 c39 -94 56 -114 89 -98 19 9 14 23 -102 304 -120 289 -123 295 -152
298 l-31 3 -98 -238 c-148 -356 -146 -352 -156 -326 -8 18 -15 21 -42 16 -23
-3 -38 0 -46 9 -8 10 -12 94 -14 284 l-3 269 -28 3 c-16 2 -29 -2 -33 -11z
m506 -231 c28 -71 49 -130 47 -133 -3 -2 -52 -2 -110 -1 l-106 3 48 115 c26
63 50 124 54 134 4 10 9 17 11 15 2 -2 27 -62 56 -133z"/>
<path d="M8127 2054 c-4 -4 -7 -61 -7 -128 l0 -120 -27 27 c-84 79 -206 72
-280 -17 -36 -45 -53 -96 -53 -163 0 -179 185 -284 325 -185 41 28 45 30 45
12 0 -23 44 -55 65 -46 17 6 20 47 5 62 -6 6 -11 121 -12 284 l-3 275 -25 3
c-14 2 -29 0 -33 -4z m-90 -240 c19 -9 45 -31 59 -49 21 -28 24 -42 24 -112 0
-66 -4 -85 -21 -107 -29 -37 -70 -56 -122 -56 -119 0 -190 146 -126 261 40 71
114 96 186 63z"/>
<path d="M10790 1772 c0 -276 1 -289 20 -310 26 -27 60 -36 106 -28 60 12 56
67 -5 58 -21 -3 -32 2 -45 19 -14 20 -16 60 -16 286 l0 263 -30 0 -30 0 0
-288z"/>
<path d="M3347 2033 c-4 -3 -7 -135 -7 -293 0 -209 3 -289 12 -298 8 -8 67
-12 199 -12 158 0 189 2 200 16 9 11 10 20 2 32 -9 15 -34 17 -177 20 l-166 2
0 105 0 105 139 0 c110 0 141 3 151 15 7 8 10 21 7 30 -5 12 -34 15 -149 17
l-143 3 -3 102 -3 103 168 2 168 3 3 28 3 27 -199 0 c-109 0 -202 -3 -205 -7z"/>
<path d="M3919 1862 c-39 -20 -62 -41 -84 -77 -27 -44 -30 -57 -30 -130 0 -72
3 -86 28 -123 59 -89 172 -126 272 -88 45 18 110 80 100 97 -11 16 -51 10 -71
-12 -66 -74 -193 -58 -243 31 -39 71 -43 69 162 72 l182 3 3 27 c5 46 -18 108
-56 150 -73 81 -169 100 -263 50z m181 -51 c32 -23 70 -79 70 -102 0 -18 -11
-19 -150 -19 -124 0 -150 3 -150 14 0 47 53 110 104 125 40 13 94 5 126 -18z"/>
<path d="M4491 1877 c-18 -7 -51 -28 -72 -45 l-39 -33 0 40 c0 39 -2 41 -30
41 l-30 0 0 -220 c0 -195 2 -221 16 -227 9 -3 24 -2 33 4 13 8 17 36 21 157
l5 148 41 38 c47 43 101 59 140 41 43 -19 54 -65 54 -230 0 -94 4 -152 11
-156 5 -4 21 -4 35 -1 l24 6 0 140 c0 232 -28 299 -126 306 -27 2 -64 -2 -83
-9z"/>
<path d="M4975 1879 c-16 -4 -45 -22 -63 -39 -18 -16 -35 -30 -38 -30 -2 0 -4
16 -4 35 0 32 -2 35 -30 35 l-30 0 0 -220 c0 -195 2 -221 16 -227 9 -3 24 -2
33 4 13 8 17 36 21 154 5 151 11 173 55 208 56 43 130 35 155 -17 8 -16 15
-90 19 -187 l6 -160 25 0 25 0 5 140 c6 147 13 176 51 211 56 50 103 57 146
20 l28 -24 5 -168 c4 -139 8 -169 21 -177 9 -6 24 -7 33 -4 14 6 16 27 16 157
0 83 -5 171 -11 195 -29 115 -162 139 -256 46 l-39 -40 -19 36 c-30 55 -94 75
-170 52z"/>
<path d="M5690 1884 c-56 -20 -110 -49 -110 -59 0 -29 27 -36 61 -16 105 61
219 16 219 -85 l0 -32 -85 6 c-140 8 -225 -41 -225 -129 0 -86 58 -139 151
-139 53 0 129 26 143 49 12 18 23 13 30 -14 6 -25 45 -43 65 -30 14 8 14 52 1
60 -6 3 -10 51 -10 108 -1 161 -17 211 -82 260 -25 19 -127 32 -158 21z m120
-235 l50 -11 0 -42 c0 -33 -6 -48 -27 -68 -68 -65 -174 -63 -209 3 -19 37 -18
52 7 83 33 42 92 54 179 35z"/>
<path d="M6139 1881 c-47 -15 -99 -43 -99 -55 1 -33 17 -38 58 -17 91 47 174
34 205 -32 9 -19 17 -46 17 -60 l0 -26 -88 6 c-107 7 -149 -5 -192 -53 -23
-27 -30 -44 -30 -77 0 -85 58 -137 152 -137 52 0 129 27 142 49 11 18 26 13
26 -9 0 -20 27 -40 54 -40 23 0 30 38 12 65 -12 19 -16 52 -16 150 0 134 -7
161 -52 201 -43 39 -124 54 -189 35z m162 -242 c32 -17 25 -75 -14 -114 -76
-76 -217 -47 -217 44 0 38 19 59 65 76 43 16 131 13 166 -6z"/>
<path d="M7469 1876 c-44 -16 -98 -53 -100 -69 -1 -7 -5 6 -8 28 -5 34 -10 40
-34 43 l-27 3 2 -223 3 -223 25 0 25 0 5 146 c5 138 6 147 32 180 34 46 95 74
142 65 59 -11 69 -43 76 -231 l5 -160 25 0 25 0 3 165 c2 134 0 173 -14 208
-28 74 -98 99 -185 68z"/>
<path d="M8425 1876 c-54 -20 -120 -92 -135 -147 -27 -99 13 -214 92 -266 56
-38 157 -44 214 -15 48 25 99 76 90 91 -12 18 -52 12 -72 -10 -80 -89 -231
-46 -260 73 l-6 28 183 2 184 3 0 50 c-1 139 -155 240 -290 191z m162 -67 c26
-17 73 -88 73 -112 0 -4 -70 -7 -155 -7 -100 0 -155 4 -155 10 0 23 29 76 52
98 49 45 122 49 185 11z"/>
<path d="M9242 1869 c-23 -11 -51 -32 -62 -46 l-19 -24 -3 38 c-3 33 -7 38
-31 41 l-27 3 2 -223 3 -223 25 0 25 0 5 140 c6 147 13 176 51 211 56 50 103
57 146 20 l28 -24 3 -171 c3 -170 3 -171 27 -177 13 -3 29 -3 34 1 7 4 11 57
11 142 0 127 2 139 25 178 35 61 107 91 155 65 38 -20 45 -50 50 -220 l5 -165
30 0 30 0 0 175 c-1 196 -8 224 -68 260 -61 38 -159 14 -209 -50 -23 -30 -26
-31 -32 -13 -3 11 -19 32 -36 48 -40 39 -108 45 -168 14z"/>
<path d="M9969 1881 c-47 -15 -99 -43 -99 -55 1 -33 17 -38 57 -18 55 28 106
36 147 22 40 -13 63 -44 72 -97 l6 -38 -110 0 c-96 0 -114 -3 -138 -21 -87
-65 -89 -164 -4 -222 50 -34 149 -29 208 11 50 32 52 33 52 7 0 -20 27 -40 55
-40 14 0 16 6 10 38 -4 20 -10 101 -13 179 -6 121 -10 146 -28 170 -42 58
-139 87 -215 64z m162 -242 c25 -13 25 -69 -1 -101 -27 -35 -80 -58 -130 -58
-74 0 -126 80 -87 133 30 42 160 58 218 26z"/>
<path d="M10410 1874 c-25 -8 -55 -22 -68 -32 -20 -15 -21 -20 -9 -36 13 -18
15 -18 55 3 110 56 205 21 214 -79 l3 -35 -95 3 c-84 3 -100 1 -139 -20 -82
-44 -102 -130 -46 -196 34 -41 75 -55 142 -50 41 3 71 12 101 31 l42 27 10
-24 c9 -25 42 -42 60 -31 13 8 13 52 0 60 -6 4 -10 59 -10 133 0 113 -3 133
-22 172 -40 79 -132 108 -238 74z m182 -235 c17 -9 19 -18 15 -50 -6 -49 -21
-67 -72 -90 -89 -41 -175 -6 -175 70 0 44 18 64 70 80 40 12 132 6 162 -10z"/>
<path d="M8800 1660 l0 -220 24 -6 c14 -3 30 -3 35 1 7 4 11 59 11 148 l0 142
31 38 c21 25 45 41 77 50 39 12 48 18 50 40 3 24 0 27 -28 27 -39 0 -82 -22
-108 -54 -23 -30 -32 -24 -32 21 0 30 -3 33 -30 33 l-30 0 0 -220z"/>
</g>
</svg>
