<?xml version="1.0" standalone="no"?>
<!DOCTYPE svg PUBLIC "-//W3C//DTD SVG 20010904//EN"
 "http://www.w3.org/TR/2001/REC-SVG-20010904/DTD/svg10.dtd">
<svg version="1.0" xmlns="http://www.w3.org/2000/svg"
 width="503.000000pt" height="491.000000pt" viewBox="0 0 503.000000 491.000000"
 preserveAspectRatio="xMidYMid meet">

<g transform="translate(0.000000,491.000000) scale(0.100000,-0.100000)"
fill="#000000" stroke="none">
<path d="M825 4795 c-319 -72 -547 -291 -637 -611 l-23 -79 -3 -1645 c-3
-1244 -1 -1666 8 -1730 23 -159 95 -309 215 -448 38 -45 180 -145 253 -179 41
-19 110 -44 155 -56 l82 -22 1625 0 c1704 0 1658 -1 1790 42 111 36 240 116
316 195 130 134 196 259 234 438 17 80 18 184 16 1745 l-2 1660 -22 79 c-68
244 -230 442 -445 545 -171 82 -1 75 -1852 78 -1358 1 -1661 -1 -1710 -12z
m3208 -642 l67 -6 0 -303 0 -304 -167 0 c-187 0 -229 -8 -289 -53 -83 -63
-114 -142 -121 -309 l-6 -118 289 -2 289 -3 0 -310 0 -310 -287 -3 -288 -2 0
-930 0 -930 -405 0 -405 0 0 930 0 930 -250 0 -250 0 0 315 0 315 249 0 249 0
5 208 c4 166 9 222 26 284 59 221 172 389 328 488 82 52 271 99 453 113 86 7
445 7 513 0z"/>
</g>
</svg>
