<?xml version="1.0" standalone="no"?>
<!DOCTYPE svg PUBLIC "-//W3C//DTD SVG 20010904//EN"
 "http://www.w3.org/TR/2001/REC-SVG-20010904/DTD/svg10.dtd">
<svg version="1.0" xmlns="http://www.w3.org/2000/svg"
 width="1200.000000pt" height="630.000000pt" viewBox="0 0 1200.000000 630.000000"
 preserveAspectRatio="xMidYMid meet">

<g transform="translate(0.000000,630.000000) scale(0.100000,-0.100000)"
fill="#000000" stroke="none">
<path d="M3415 6186 c-193 -47 -375 -219 -443 -421 -16 -46 -17 -230 -17
-2615 0 -2385 1 -2569 17 -2615 53 -159 176 -301 319 -371 46 -23 108 -47 137
-53 75 -16 5069 -16 5144 0 196 41 387 218 456 424 16 46 17 230 17 2615 0
2385 -1 2569 -17 2615 -53 159 -176 301 -319 371 -46 23 -108 47 -137 53 -80
17 -5088 14 -5157 -3z m4952 -619 c67 -36 68 -42 68 -437 0 -391 1 -386 -62
-427 -25 -16 -60 -18 -389 -18 -390 0 -395 1 -431 54 -16 23 -18 61 -21 356
-2 182 -1 349 3 373 8 57 49 102 101 112 21 5 188 8 369 7 295 -2 333 -4 362
-20z m-2153 -1223 c488 -80 894 -486 981 -979 20 -115 20 -315 0 -430 -87
-493 -487 -893 -980 -980 -50 -9 -146 -16 -215 -16 -329 0 -609 114 -846 344
-240 231 -365 529 -365 867 0 338 125 636 365 867 288 280 657 393 1060 327z
m-2028 -926 c-4 -18 -10 -112 -13 -208 -6 -197 10 -346 53 -510 214 -815 940
-1380 1774 -1380 834 0 1560 565 1774 1380 43 164 59 313 53 510 -3 96 -9 190
-13 208 l-6 32 316 0 316 0 -2 -1317 c-3 -1238 -4 -1320 -21 -1350 -9 -18 -32
-41 -50 -50 -30 -17 -154 -18 -2367 -18 -2213 0 -2337 1 -2367 18 -18 9 -41
32 -50 50 -17 30 -18 112 -21 1350 l-2 1317 316 0 316 0 -6 -32z"/>
</g>
</svg>
