<?xml version="1.0" standalone="no"?>
<!DOCTYPE svg PUBLIC "-//W3C//DTD SVG 20010904//EN"
 "http://www.w3.org/TR/2001/REC-SVG-20010904/DTD/svg10.dtd">
<svg version="1.0" xmlns="http://www.w3.org/2000/svg"
 width="362.000000pt" height="152.000000pt" viewBox="0 0 362.000000 152.000000"
 preserveAspectRatio="xMidYMid meet">

<g transform="translate(0.000000,152.000000) scale(0.100000,-0.100000)"
fill="#000000" stroke="none">
<path d="M1681 1081 c-69 -25 -76 -29 -83 -61 -5 -19 -13 -44 -18 -55 -5 -11
-12 -61 -15 -112 -6 -86 -5 -93 15 -110 12 -10 34 -28 48 -40 15 -13 41 -26
59 -29 17 -3 40 -13 50 -22 47 -43 50 -44 75 -30 13 7 25 15 28 18 3 4 37 27
76 53 102 67 109 80 94 181 -7 51 -22 104 -41 143 l-31 62 -68 15 c-88 20
-100 20 -189 -13z m-38 -138 c-7 -2 -19 -2 -25 0 -7 3 -2 5 12 5 14 0 19 -2
13 -5z m204 1 c-3 -3 -12 -4 -19 -1 -8 3 -5 6 6 6 11 1 17 -2 13 -5z m-20 -30
c-3 -3 -12 -4 -19 -1 -8 3 -5 6 6 6 11 1 17 -2 13 -5z m-20 -30 c-3 -3 -12 -4
-19 -1 -8 3 -5 6 6 6 11 1 17 -2 13 -5z"/>
<path d="M330 538 c-1 -1 -2 -45 -3 -96 -2 -86 -1 -92 18 -92 19 0 20 5 15 92
-3 60 -9 93 -17 96 -7 2 -13 2 -13 0z"/>
<path d="M426 532 c-3 -6 -1 -14 5 -17 15 -10 25 3 12 16 -7 7 -13 7 -17 1z"/>
<path d="M507 534 c-4 -4 -7 -47 -7 -96 0 -77 2 -88 18 -88 15 0 17 10 15 87
-3 82 -11 112 -26 97z"/>
<path d="M668 534 c-9 -9 3 -44 16 -44 6 0 36 -30 66 -65 53 -62 80 -80 80
-52 0 11 -142 167 -153 167 -2 0 -6 -3 -9 -6z"/>
<path d="M886 531 c-7 -10 71 -171 83 -171 20 0 15 24 -19 95 -33 70 -53 94
-64 76z"/>
<path d="M1043 528 c-4 -7 -8 -50 -8 -95 0 -72 2 -83 18 -83 15 0 17 11 17 89
0 86 -9 116 -27 89z"/>
<path d="M1457 534 c-4 -4 -7 -47 -7 -96 0 -77 2 -88 18 -88 15 0 17 10 15 92
-1 85 -8 109 -26 92z"/>
<path d="M1780 530 c0 -8 16 -27 123 -145 l36 -40 1 33 c0 17 -5 32 -10 32 -6
0 -38 29 -71 65 -58 62 -79 76 -79 55z"/>
<path d="M2007 534 c-4 -4 -7 -47 -7 -96 0 -88 0 -88 25 -88 23 0 25 2 14 21
-6 12 -9 52 -7 92 3 65 -6 90 -25 71z"/>
<path d="M2219 537 c0 -1 -1 -44 -2 -95 -2 -77 0 -92 14 -92 12 0 15 15 15 90
-1 62 -5 91 -13 95 -7 2 -13 3 -14 2z"/>
<path d="M2306 531 c-4 -6 3 -15 14 -21 23 -12 27 2 6 19 -9 8 -16 8 -20 2z"/>
<path d="M2387 534 c-4 -4 -7 -47 -7 -96 0 -77 2 -88 18 -88 15 0 17 11 16 92
-1 84 -9 110 -27 92z"/>
<path d="M2556 532 c-3 -5 1 -19 9 -33 7 -13 27 -53 45 -89 27 -55 33 -62 41
-47 8 14 2 35 -28 92 -36 71 -56 94 -67 77z"/>
<path d="M2722 532 c-14 -9 -16 -25 -14 -114 2 -58 5 -68 20 -68 15 0 17 10
15 91 -1 50 -3 92 -5 94 -2 2 -9 1 -16 -3z"/>
<path d="M3129 538 c0 -1 -1 -45 -2 -96 -2 -82 0 -92 16 -92 16 0 17 9 15 92
-2 62 -7 93 -15 96 -7 2 -13 2 -14 0z"/>
<path d="M590 526 c0 -2 7 -9 15 -16 12 -10 15 -10 15 4 0 9 -7 16 -15 16 -8
0 -15 -2 -15 -4z"/>
<path d="M816 515 c4 -8 8 -15 10 -15 2 0 4 7 4 15 0 8 -4 15 -10 15 -5 0 -7
-7 -4 -15z"/>
<path d="M1164 515 c-4 -8 -2 -21 4 -28 5 -6 13 -22 16 -34 7 -20 4 -23 -23
-23 -17 0 -31 -4 -31 -8 0 -5 14 -6 31 -4 34 5 49 -8 49 -45 0 -20 5 -23 41
-23 23 0 38 4 34 10 -3 5 -12 7 -19 4 -10 -4 -24 20 -46 80 -32 85 -45 101
-56 71z"/>
<path d="M1324 515 c-3 -8 1 -24 10 -37 24 -34 20 -48 -14 -48 -16 0 -30 -4
-30 -8 0 -5 14 -6 31 -4 34 5 49 -8 49 -45 0 -17 6 -23 24 -23 l23 0 -35 90
c-35 88 -47 104 -58 75z"/>
<path d="M1660 513 c1 -10 7 -29 15 -43 21 -37 18 -43 -15 -38 -16 3 -30 1
-30 -4 0 -4 16 -8 35 -8 31 0 35 -3 41 -35 5 -26 11 -35 26 -35 23 0 23 0 -17
103 -27 71 -56 102 -55 60z"/>
<path d="M1930 519 c0 -5 5 -7 10 -4 6 3 10 8 10 11 0 2 -4 4 -10 4 -5 0 -10
-5 -10 -11z"/>
<path d="M2110 523 c0 -4 7 -17 15 -27 19 -25 19 -73 1 -108 -12 -23 -12 -28
-2 -28 35 0 59 87 36 130 -11 21 -50 46 -50 33z"/>
<path d="M2467 496 c4 -27 1 -36 -17 -49 l-22 -15 33 -41 c44 -55 68 -55 33 0
-23 37 -24 42 -10 58 19 21 21 52 4 69 -20 20 -27 13 -21 -22z"/>
<path d="M2840 506 c0 -13 5 -28 10 -31 21 -13 10 -44 -17 -48 -26 -4 -26 -4
4 -6 34 -1 59 -30 49 -57 -4 -11 4 -14 34 -14 30 0 40 4 40 16 0 13 -3 14 -14
5 -18 -15 -20 -11 -56 82 -28 74 -50 97 -50 53z"/>
<path d="M2995 520 c-4 -6 0 -22 9 -35 23 -36 20 -53 -11 -58 -26 -4 -26 -4 4
-6 34 -1 59 -30 49 -57 -4 -10 2 -14 19 -14 l25 0 -24 63 c-43 111 -45 117
-55 117 -5 0 -13 -5 -16 -10z"/>
<path d="M573 455 c-10 -10 -9 -16 2 -25 13 -10 15 -8 15 14 0 30 -1 30 -17
11z"/>
<path d="M397 454 c-8 -8 1 -24 14 -24 5 0 9 7 9 15 0 15 -12 20 -23 9z"/>
<path d="M2287 453 c-11 -10 -8 -20 8 -27 10 -4 15 1 15 14 0 20 -11 26 -23
13z"/>
<path d="M3240 375 c-23 -25 -23 -25 -2 -25 12 0 23 8 27 21 10 31 1 32 -25 4z"/>
<path d="M435 370 c-18 -19 -17 -20 3 -20 15 0 22 6 22 20 0 11 -2 20 -3 20
-2 0 -12 -9 -22 -20z"/>
<path d="M605 370 c-17 -18 -17 -20 -1 -20 9 0 19 7 23 15 9 25 -2 27 -22 5z"/>
<path d="M1562 370 c-11 -18 -10 -20 8 -20 13 0 20 7 20 20 0 11 -3 20 -8 20
-4 0 -13 -9 -20 -20z"/>
<path d="M666 365 c-3 -9 0 -15 9 -15 9 0 12 6 9 15 -4 8 -7 15 -9 15 -2 0 -5
-7 -9 -15z"/>
<path d="M2317 373 c-12 -11 -8 -23 8 -23 8 0 15 7 15 15 0 16 -12 20 -23 8z"/>
<path d="M880 360 c0 -5 5 -10 10 -10 6 0 10 5 10 10 0 6 -4 10 -10 10 -5 0
-10 -4 -10 -10z"/>
<path d="M1105 360 c-3 -5 1 -10 10 -10 9 0 13 5 10 10 -3 6 -8 10 -10 10 -2
0 -7 -4 -10 -10z"/>
<path d="M1600 360 c0 -5 7 -10 16 -10 8 0 12 5 9 10 -3 6 -10 10 -16 10 -5 0
-9 -4 -9 -10z"/>
<path d="M1780 360 c0 -5 7 -10 16 -10 8 0 12 5 9 10 -3 6 -10 10 -16 10 -5 0
-9 -4 -9 -10z"/>
<path d="M2555 360 c-3 -5 1 -10 10 -10 9 0 13 5 10 10 -3 6 -8 10 -10 10 -2
0 -7 -4 -10 -10z"/>
<path d="M2780 360 c0 -5 5 -10 10 -10 6 0 10 5 10 10 0 6 -4 10 -10 10 -5 0
-10 -4 -10 -10z"/>
</g>
</svg>
